<?xml version="1.0" encoding="UTF-8" standalone="no"?>
<!DOCTYPE svg PUBLIC "-//W3C//DTD SVG 1.1//EN" "http://www.w3.org/Graphics/SVG/1.1/DTD/svg11.dtd">
<svg version="1.1" xmlns="http://www.w3.org/2000/svg" xmlns:xlink="http://www.w3.org/1999/xlink" preserveAspectRatio="xMidYMid meet" viewBox="0 0 640 640" width="640" height="640"><defs><path d="M392 56C408 56 416 64 416 80C416 276.8 416 386.13 416 408C416 424 408 432 392 432C257.6 432 182.93 432 168 432C152 432 144 424 144 408C144 211.2 144 101.87 144 80C144 64 152 56 168 56C302.4 56 377.07 56 392 56Z" id="bXnWDYway"></path><path d="M176 88L384 88L384 400L176 400L176 88Z" id="a2784CE93z"></path><path d="M336 88L224 88L224 56L256 56L248 24L312 24L304 56L336 56L336 88Z" id="a23WStFtfL"></path><path d="M320 488L32 488L32 232L176 232L176 360L320 360L320 488Z" id="cvpbuVjq"></path><path d="M224 360L272 360L272 408L224 408L224 360Z" id="g1mHREy0iq"></path><path d="M320 368C312.8 368 308.8 368 308 368C301.37 368 296 373.37 296 380C296 382.03 296 398.27 296 400.31C296 435.48 267.48 464 232.31 464C228.67 464 199.63 464 196 464C189.37 464 184 469.37 184 476C184 476.8 184 480.8 184 488L320 488L320 368Z" id="a7jJWLDhNB"></path><path d="M80 360L128 360L128 408L80 408L80 360Z" id="cb6c2AKNv"></path><path d="M176 368C168.8 368 164.8 368 164 368C157.37 368 152 373.37 152 380C152 382.03 152 398.27 152 400.31C152 435.48 123.48 464 88.31 464C84.67 464 55.63 464 52 464C45.37 464 40 469.37 40 476C40 476.8 40 480.8 40 488L176 488L176 368Z" id="beZ2ztsGv"></path><path d="M80 232L128 232L128 280L80 280L80 232Z" id="f5Gz7tFqIp"></path><path d="M176 240C168.8 240 164.8 240 164 240C157.37 240 152 245.37 152 252C152 254.03 152 270.27 152 272.31C152 307.48 123.48 336 88.31 336C84.67 336 55.63 336 52 336C45.37 336 40 341.37 40 348C40 348.8 40 352.8 40 360L176 360L176 240Z" id="e5tHAsxn4"></path><path d="M184 352C184 280 184 240 184 232C184 227.58 180.42 224 176 224C161.6 224 46.4 224 32 224C27.58 224 24 227.58 24 232C24 257.6 24 462.4 24 488C24 492.42 27.58 496 32 496C60.8 496 291.2 496 320 496C324.42 496 328 492.42 328 488C328 475.2 328 372.8 328 360C328 355.58 324.42 352 320 352C301.87 352 256.53 352 184 352ZM232 368L264 368L264 400L232 400L232 368ZM88 240L120 240L120 272L88 272L88 240ZM40 240L72 240C72 264 72 277.33 72 280C72 284.42 75.58 288 80 288C84.8 288 123.2 288 128 288C132.42 288 136 284.42 136 280C136 277.33 136 264 136 240L168 240L168 352L40 352L40 240ZM88 368L120 368L120 400L88 400L88 368ZM40 368L72 368C72 392 72 405.33 72 408C72 412.42 75.58 416 80 416C84.8 416 123.2 416 128 416C132.42 416 136 412.42 136 408C136 405.33 136 392 136 368L168 368L168 480L40 480L40 368ZM312 480L184 480L184 368L216 368C216 392 216 405.33 216 408C216 412.42 219.58 416 224 416C228.8 416 267.2 416 272 416C276.42 416 280 412.42 280 408C280 405.33 280 392 280 368L312 368L312 480Z" id="kaC0AQyst"></path><path d="M280 448L296 448L296 464L280 464L280 448Z" id="bkEOhyZyg"></path><path d="M136 448L152 448L152 464L136 464L136 448Z" id="f31oUkIDtC"></path><path d="M136 320L152 320L152 336L136 336L136 320Z" id="a2JHeceagP"></path><path d="M152 80.88C152.01 71.92 159.17 64.67 168 64.66C171.2 64.66 187.2 64.66 216 64.66L216 80.88C192 80.88 178.67 80.88 176 80.88C171.58 80.88 168 84.51 168 88.99C168 97.1 168 137.64 168 210.63L184 210.63L184 97.1L376 97.1L376 226.85L392 226.85C392 144.13 392 98.18 392 88.99C392 84.51 388.42 80.88 384 80.88C381.33 80.88 368 80.88 344 80.88L344 64.66C372.8 64.66 388.8 64.66 392 64.66C400.83 64.67 407.99 71.92 408 80.88C408 90.07 408 136.02 408 218.74L424 218.74C424 136.02 424 90.07 424 80.88C423.98 62.97 409.66 48.46 392 48.44C386.82 48.44 360.9 48.44 314.25 48.44C317.55 35.02 319.39 27.57 319.76 26.08C320.83 21.73 318.23 17.33 313.94 16.24C313.31 16.08 312.65 16 312 16C305.6 16 254.4 16 248 16C243.58 16 240 19.63 240 24.11C240 24.77 240.08 25.43 240.24 26.08C240.61 27.57 242.44 35.02 245.75 48.44C199.1 48.44 173.18 48.44 168 48.44C150.34 48.46 136.02 62.97 136 80.88C136 89.53 136 132.78 136 210.63L152 210.63C152 141.43 152 98.18 152 80.88ZM232 64.66C246.4 64.66 254.4 64.66 256 64.66C260.42 64.66 264 61.03 264 56.55C264 55.88 263.92 55.22 263.76 54.58C263.39 53.09 261.56 45.64 258.25 32.22L301.75 32.22C298.45 45.64 296.61 53.09 296.24 54.58C295.17 58.93 297.77 63.33 302.06 64.42C302.69 64.58 303.35 64.66 304 64.66C305.6 64.66 313.6 64.66 328 64.66L328 80.88L232 80.88L232 64.66Z" id="bjj9kDD4R"></path><path d="M408 408C407.99 416.83 400.83 423.99 392 424C388.8 424 372.8 424 344 424L344 440C372.8 440 388.8 440 392 440C409.66 439.98 423.98 425.66 424 408C424 403.2 424 379.2 424 336L408 336C408 374.4 408 398.4 408 408Z" id="g3a9bp58F7"></path><path d="M392 344L376 344L376 392L344 392L344 408C368 408 381.33 408 384 408C388.42 408 392 404.42 392 400C392 392.53 392 373.87 392 344Z" id="b30D4xtYqs"></path><path d="M248 120C248 115.58 244.42 112 240 112C236.8 112 211.2 112 208 112C203.58 112 200 115.58 200 120C200 123.2 200 148.8 200 152C200 156.42 203.58 160 208 160C211.2 160 236.8 160 240 160C244.42 160 248 156.42 248 152C248 145.6 248 126.4 248 120ZM232 144L216 144L216 128L232 128L232 144Z" id="c2DicNcFlw"></path><path d="M208 184C203.58 184 200 187.58 200 192C200 195.2 200 220.8 200 224C200 228.42 203.58 232 208 232C211.2 232 236.8 232 240 232C244.42 232 248 228.42 248 224C248 220.8 248 195.2 248 192C248 187.58 244.42 184 240 184C233.6 184 211.2 184 208 184ZM232 216L216 216L216 200L232 200L232 216Z" id="aIxV4ycG"></path><path d="M264 112L280 112L280 128L264 128L264 112Z" id="e7mKZ1AlF"></path><path d="M264 144L360 144L360 160L264 160L264 144Z" id="cbDojLmcEX"></path><path d="M296 112L360 112L360 128L296 128L296 112Z" id="aonIST1ZU"></path><path d="M264 184L280 184L280 200L264 200L264 184Z" id="d1IxOAA8Fr"></path><path d="M264 216L360 216L360 232L264 232L264 216Z" id="aVGhNutkK"></path><path d="M296 184L360 184L360 200L296 200L296 184Z" id="abD1Id6O"></path><path d="M408 216L424 216L424 336L408 336L408 216Z" id="amClKzU43"></path><path d="M376 224L392 224L392 344L376 344L376 224Z" id="bKS13umhP"></path><path d="M323.5 424L348.5 424L348.5 440L323.5 440L323.5 424Z" id="j1mQAY0IRP"></path><path d="M319 392L344 392L344 408L319 408L319 392Z" id="aMPSOTWUt"></path><path d="M168 207L184 207L184 232L168 232L168 207Z" id="i415fG6vx3"></path><path d="M136 201.85L152 201.85L152 226.85L136 226.85L136 201.85Z" id="c1CAnwrs7C"></path><path d="M208 256C203.58 256 200 259.58 200 264C200 267.2 200 292.8 200 296C200 300.42 203.58 304 208 304C211.2 304 236.8 304 240 304C244.42 304 248 300.42 248 296C248 292.8 248 267.2 248 264C248 259.58 244.42 256 240 256C233.6 256 211.2 256 208 256ZM232 288L216 288L216 272L232 272L232 288Z" id="avCwXrs8W"></path><path d="M264 288L360 288L360 304L264 304L264 288Z" id="bXjA7qowU"></path><path d="M296 253.45L360 253.45L360 269.45L296 269.45L296 253.45Z" id="b1hjqVBNlr"></path><path d="M268.55 253.45L284.55 253.45L284.55 269.45L268.55 269.45L268.55 253.45Z" id="e1F0fUlX0g"></path></defs><g><g><g><use xlink:href="#bXnWDYway" opacity="1" fill="#0093b9" fill-opacity="1"></use><g><use xlink:href="#bXnWDYway" opacity="1" fill-opacity="0" stroke="#000000" stroke-width="1" stroke-opacity="0"></use></g></g><g><use xlink:href="#a2784CE93z" opacity="1" fill="#e3e4e2" fill-opacity="1"></use><g><use xlink:href="#a2784CE93z" opacity="1" fill-opacity="0" stroke="#000000" stroke-width="1" stroke-opacity="0"></use></g></g><g><use xlink:href="#a23WStFtfL" opacity="1" fill="#0093b9" fill-opacity="1"></use><g><use xlink:href="#a23WStFtfL" opacity="1" fill-opacity="0" stroke="#000000" stroke-width="1" stroke-opacity="0"></use></g></g><g><use xlink:href="#cvpbuVjq" opacity="1" fill="#f8bc1e" fill-opacity="1"></use><g><use xlink:href="#cvpbuVjq" opacity="1" fill-opacity="0" stroke="#000000" stroke-width="1" stroke-opacity="0"></use></g></g><g><use xlink:href="#g1mHREy0iq" opacity="1" fill="#f9da62" fill-opacity="1"></use><g><use xlink:href="#g1mHREy0iq" opacity="1" fill-opacity="0" stroke="#000000" stroke-width="1" stroke-opacity="0"></use></g></g><g><use xlink:href="#a7jJWLDhNB" opacity="1" fill="#f5a922" fill-opacity="1"></use><g><use xlink:href="#a7jJWLDhNB" opacity="1" fill-opacity="0" stroke="#000000" stroke-width="1" stroke-opacity="0"></use></g></g><g><use xlink:href="#cb6c2AKNv" opacity="1" fill="#f9da62" fill-opacity="1"></use><g><use xlink:href="#cb6c2AKNv" opacity="1" fill-opacity="0" stroke="#000000" stroke-width="1" stroke-opacity="0"></use></g></g><g><use xlink:href="#beZ2ztsGv" opacity="1" fill="#f5a922" fill-opacity="1"></use><g><use xlink:href="#beZ2ztsGv" opacity="1" fill-opacity="0" stroke="#000000" stroke-width="1" stroke-opacity="0"></use></g></g><g><use xlink:href="#f5Gz7tFqIp" opacity="1" fill="#f9da62" fill-opacity="1"></use><g><use xlink:href="#f5Gz7tFqIp" opacity="1" fill-opacity="0" stroke="#000000" stroke-width="1" stroke-opacity="0"></use></g></g><g><use xlink:href="#e5tHAsxn4" opacity="1" fill="#f5a922" fill-opacity="1"></use><g><use xlink:href="#e5tHAsxn4" opacity="1" fill-opacity="0" stroke="#000000" stroke-width="1" stroke-opacity="0"></use></g></g><g><use xlink:href="#kaC0AQyst" opacity="1" fill="#000000" fill-opacity="1"></use><g><use xlink:href="#kaC0AQyst" opacity="1" fill-opacity="0" stroke="#000000" stroke-width="1" stroke-opacity="0"></use></g></g><g><use xlink:href="#bkEOhyZyg" opacity="1" fill="#000000" fill-opacity="1"></use><g><use xlink:href="#bkEOhyZyg" opacity="1" fill-opacity="0" stroke="#000000" stroke-width="1" stroke-opacity="0"></use></g></g><g><use xlink:href="#f31oUkIDtC" opacity="1" fill="#000000" fill-opacity="1"></use><g><use xlink:href="#f31oUkIDtC" opacity="1" fill-opacity="0" stroke="#000000" stroke-width="1" stroke-opacity="0"></use></g></g><g><use xlink:href="#a2JHeceagP" opacity="1" fill="#000000" fill-opacity="1"></use><g><use xlink:href="#a2JHeceagP" opacity="1" fill-opacity="0" stroke="#000000" stroke-width="1" stroke-opacity="0"></use></g></g><g><use xlink:href="#bjj9kDD4R" opacity="1" fill="#000000" fill-opacity="1"></use><g><use xlink:href="#bjj9kDD4R" opacity="1" fill-opacity="0" stroke="#000000" stroke-width="1" stroke-opacity="0"></use></g></g><g><use xlink:href="#g3a9bp58F7" opacity="1" fill="#000000" fill-opacity="1"></use><g><use xlink:href="#g3a9bp58F7" opacity="1" fill-opacity="0" stroke="#000000" stroke-width="1" stroke-opacity="0"></use></g></g><g><use xlink:href="#b30D4xtYqs" opacity="1" fill="#000000" fill-opacity="1"></use><g><use xlink:href="#b30D4xtYqs" opacity="1" fill-opacity="0" stroke="#000000" stroke-width="1" stroke-opacity="0"></use></g></g><g><use xlink:href="#c2DicNcFlw" opacity="1" fill="#000000" fill-opacity="1"></use><g><use xlink:href="#c2DicNcFlw" opacity="1" fill-opacity="0" stroke="#000000" stroke-width="1" stroke-opacity="0"></use></g></g><g><use xlink:href="#aIxV4ycG" opacity="1" fill="#000000" fill-opacity="1"></use><g><use xlink:href="#aIxV4ycG" opacity="1" fill-opacity="0" stroke="#000000" stroke-width="1" stroke-opacity="0"></use></g></g><g><use xlink:href="#e7mKZ1AlF" opacity="1" fill="#000000" fill-opacity="1"></use><g><use xlink:href="#e7mKZ1AlF" opacity="1" fill-opacity="0" stroke="#000000" stroke-width="1" stroke-opacity="0"></use></g></g><g><use xlink:href="#cbDojLmcEX" opacity="1" fill="#000000" fill-opacity="1"></use><g><use xlink:href="#cbDojLmcEX" opacity="1" fill-opacity="0" stroke="#000000" stroke-width="1" stroke-opacity="0"></use></g></g><g><use xlink:href="#aonIST1ZU" opacity="1" fill="#000000" fill-opacity="1"></use><g><use xlink:href="#aonIST1ZU" opacity="1" fill-opacity="0" stroke="#000000" stroke-width="1" stroke-opacity="0"></use></g></g><g><use xlink:href="#d1IxOAA8Fr" opacity="1" fill="#000000" fill-opacity="1"></use><g><use xlink:href="#d1IxOAA8Fr" opacity="1" fill-opacity="0" stroke="#000000" stroke-width="1" stroke-opacity="0"></use></g></g><g><use xlink:href="#aVGhNutkK" opacity="1" fill="#000000" fill-opacity="1"></use><g><use xlink:href="#aVGhNutkK" opacity="1" fill-opacity="0" stroke="#000000" stroke-width="1" stroke-opacity="0"></use></g></g><g><use xlink:href="#abD1Id6O" opacity="1" fill="#000000" fill-opacity="1"></use><g><use xlink:href="#abD1Id6O" opacity="1" fill-opacity="0" stroke="#000000" stroke-width="1" stroke-opacity="0"></use></g></g><g><use xlink:href="#amClKzU43" opacity="1" fill="#000000" fill-opacity="1"></use><g><use xlink:href="#amClKzU43" opacity="1" fill-opacity="0" stroke="#000000" stroke-width="1" stroke-opacity="0"></use></g></g><g><use xlink:href="#bKS13umhP" opacity="1" fill="#000000" fill-opacity="1"></use><g><use xlink:href="#bKS13umhP" opacity="1" fill-opacity="0" stroke="#000000" stroke-width="1" stroke-opacity="0"></use></g></g><g><use xlink:href="#j1mQAY0IRP" opacity="1" fill="#000000" fill-opacity="1"></use><g><use xlink:href="#j1mQAY0IRP" opacity="1" fill-opacity="0" stroke="#000000" stroke-width="1" stroke-opacity="0"></use></g></g><g><use xlink:href="#aMPSOTWUt" opacity="1" fill="#000000" fill-opacity="1"></use><g><use xlink:href="#aMPSOTWUt" opacity="1" fill-opacity="0" stroke="#000000" stroke-width="1" stroke-opacity="0"></use></g></g><g><use xlink:href="#i415fG6vx3" opacity="1" fill="#000000" fill-opacity="1"></use><g><use xlink:href="#i415fG6vx3" opacity="1" fill-opacity="0" stroke="#000000" stroke-width="1" stroke-opacity="0"></use></g></g><g><use xlink:href="#c1CAnwrs7C" opacity="1" fill="#000000" fill-opacity="1"></use><g><use xlink:href="#c1CAnwrs7C" opacity="1" fill-opacity="0" stroke="#000000" stroke-width="1" stroke-opacity="0"></use></g></g><g><use xlink:href="#avCwXrs8W" opacity="1" fill="#000000" fill-opacity="1"></use><g><use xlink:href="#avCwXrs8W" opacity="1" fill-opacity="0" stroke="#000000" stroke-width="1" stroke-opacity="0"></use></g></g><g><use xlink:href="#bXjA7qowU" opacity="1" fill="#000000" fill-opacity="1"></use><g><use xlink:href="#bXjA7qowU" opacity="1" fill-opacity="0" stroke="#000000" stroke-width="1" stroke-opacity="0"></use></g></g><g><use xlink:href="#b1hjqVBNlr" opacity="1" fill="#000000" fill-opacity="1"></use><g><use xlink:href="#b1hjqVBNlr" opacity="1" fill-opacity="0" stroke="#000000" stroke-width="1" stroke-opacity="0"></use></g></g><g><use xlink:href="#e1F0fUlX0g" opacity="1" fill="#000000" fill-opacity="1"></use><g><use xlink:href="#e1F0fUlX0g" opacity="1" fill-opacity="0" stroke="#000000" stroke-width="1" stroke-opacity="0"></use></g></g></g></g></svg>